<svg aria-hidden="true" style="position: absolute; width: 0; height: 0; overflow: hidden;" version="1.1" xmlns="http://www.w3.org/2000/svg" xmlns:xlink="http://www.w3.org/1999/xlink">
<defs>
<symbol id="icon-calendar" viewBox="0 0 32 32">
<path d="M7 0c0.265 0 0.52 0.105 0.707 0.293s0.293 0.442 0.293 0.707v1h16v-1c0-0.265 0.105-0.52 0.293-0.707s0.442-0.293 0.707-0.293 0.52 0.105 0.707 0.293c0.187 0.188 0.293 0.442 0.293 0.707v1h2c1.061 0 2.078 0.421 2.828 1.172s1.172 1.768 1.172 2.828v22c0 1.061-0.421 2.078-1.172 2.828s-1.768 1.172-2.828 1.172h-24c-1.061 0-2.078-0.421-2.828-1.172s-1.172-1.768-1.172-2.828v-22c0-1.061 0.421-2.078 1.172-2.828s1.768-1.172 2.828-1.172h2v-1c0-0.265 0.105-0.52 0.293-0.707s0.442-0.293 0.707-0.293zM4 4c-0.53 0-1.039 0.211-1.414 0.586s-0.586 0.884-0.586 1.414v22c0 0.53 0.211 1.039 0.586 1.414s0.884 0.586 1.414 0.586h24c0.53 0 1.039-0.211 1.414-0.586s0.586-0.884 0.586-1.414v-22c0-0.53-0.211-1.039-0.586-1.414s-0.884-0.586-1.414-0.586h-24z"></path>
<path d="M5 8c0-0.265 0.105-0.52 0.293-0.707s0.442-0.293 0.707-0.293h20c0.265 0 0.52 0.105 0.707 0.293s0.293 0.442 0.293 0.707v2c0 0.265-0.105 0.52-0.293 0.707s-0.442 0.293-0.707 0.293h-20c-0.265 0-0.52-0.105-0.707-0.293s-0.293-0.442-0.293-0.707v-2zM22 15c0-0.265 0.105-0.52 0.293-0.707s0.442-0.293 0.707-0.293h2c0.265 0 0.52 0.105 0.707 0.293s0.293 0.442 0.293 0.707v2c0 0.265-0.105 0.52-0.293 0.707s-0.442 0.293-0.707 0.293h-2c-0.265 0-0.52-0.105-0.707-0.293s-0.293-0.442-0.293-0.707v-2zM16 15c0-0.265 0.105-0.52 0.293-0.707s0.442-0.293 0.707-0.293h2c0.265 0 0.52 0.105 0.707 0.293s0.293 0.442 0.293 0.707v2c0 0.265-0.105 0.52-0.293 0.707s-0.442 0.293-0.707 0.293h-2c-0.265 0-0.52-0.105-0.707-0.293s-0.293-0.442-0.293-0.707v-2zM6 21c0-0.265 0.105-0.52 0.293-0.707s0.442-0.293 0.707-0.293h2c0.265 0 0.52 0.105 0.707 0.293s0.293 0.442 0.293 0.707v2c0 0.265-0.105 0.52-0.293 0.707s-0.442 0.293-0.707 0.293h-2c-0.265 0-0.52-0.105-0.707-0.293s-0.293-0.442-0.293-0.707v-2zM12 21c0-0.265 0.105-0.52 0.293-0.707s0.442-0.293 0.707-0.293h2c0.265 0 0.52 0.105 0.707 0.293s0.293 0.442 0.293 0.707v2c0 0.265-0.105 0.52-0.293 0.707s-0.442 0.293-0.707 0.293h-2c-0.265 0-0.52-0.105-0.707-0.293s-0.293-0.442-0.293-0.707v-2z"></path>
</symbol>
<symbol id="icon-car" viewBox="0 0 32 32">
<path d="M8 18c0 0.53-0.211 1.039-0.586 1.414s-0.884 0.586-1.414 0.586c-0.53 0-1.039-0.211-1.414-0.586s-0.586-0.884-0.586-1.414c0-0.53 0.211-1.039 0.586-1.414s0.884-0.586 1.414-0.586c0.53 0 1.039 0.211 1.414 0.586s0.586 0.884 0.586 1.414zM28 18c0 0.53-0.211 1.039-0.586 1.414s-0.884 0.586-1.414 0.586c-0.53 0-1.039-0.211-1.414-0.586s-0.586-0.884-0.586-1.414c0-0.53 0.211-1.039 0.586-1.414s0.884-0.586 1.414-0.586c0.53 0 1.039 0.211 1.414 0.586s0.586 0.884 0.586 1.414zM12 16c-0.53 0-1.039 0.211-1.414 0.586s-0.586 0.884-0.586 1.414c0 0.53 0.211 1.039 0.586 1.414s0.884 0.586 1.414 0.586h8c0.53 0 1.039-0.211 1.414-0.586s0.586-0.884 0.586-1.414c0-0.53-0.211-1.039-0.586-1.414s-0.884-0.586-1.414-0.586h-8zM9.724 8.552l-1.912 3.828c-0.078 0.161-0.112 0.34-0.099 0.519s0.073 0.351 0.174 0.499c0.101 0.148 0.239 0.267 0.4 0.345s0.341 0.112 0.519 0.098c1.82-0.146 4.7-0.34 7.194-0.34s5.376 0.194 7.194 0.34c0.179 0.013 0.358-0.021 0.519-0.098s0.299-0.197 0.4-0.345 0.161-0.32 0.174-0.499c0.013-0.179-0.021-0.358-0.099-0.519l-1.912-3.826c-0.083-0.166-0.21-0.306-0.368-0.404s-0.34-0.15-0.526-0.15h-10.764c-0.186 0-0.367 0.052-0.525 0.149s-0.286 0.237-0.369 0.403z"></path>
<path d="M5.040 7.030c0.386-0.9 1.027-1.667 1.845-2.206s1.776-0.825 2.755-0.824h12.724c2 0 3.808 1.192 4.596 3.030l1.584 3.696c0.15 0.35 0.42 0.638 0.76 0.808 1 0.5 1.71 1.43 1.93 2.524l0.67 3.358c0.067 0.323 0.099 0.649 0.098 0.98v0.826c0 1.628-0.78 3.086-2 3.994v3.784c0 0.265-0.105 0.52-0.293 0.707s-0.442 0.293-0.707 0.293h-4c-0.265 0-0.52-0.105-0.707-0.293s-0.293-0.442-0.293-0.707v-2.676c-2.584 0.096-5.49 0.176-8 0.176s-5.416-0.080-8-0.176v2.676c0 0.265-0.105 0.52-0.293 0.707s-0.442 0.293-0.707 0.293h-4c-0.265 0-0.52-0.105-0.707-0.293s-0.293-0.442-0.293-0.707v-3.784c-1.22-0.908-2-2.366-2-3.994v-0.826c0-0.329 0.033-0.657 0.098-0.98l0.67-3.36c0.22-1.092 0.93-2.024 1.928-2.522 0.342-0.17 0.613-0.456 0.762-0.808l1.584-3.696h-0.004zM9.64 6c-0.587 0-1.162 0.173-1.652 0.496s-0.875 0.784-1.106 1.324l-1.584 3.694c-0.336 0.786-0.941 1.427-1.706 1.808-0.22 0.109-0.413 0.268-0.562 0.463s-0.251 0.423-0.298 0.665l-0.672 3.358c-0.039 0.194-0.059 0.39-0.060 0.588v0.826c0 1.592 1.24 2.896 2.816 2.968 3.11 0.14 7.572 0.31 11.184 0.31s8.074-0.168 11.184-0.31c0.761-0.037 1.479-0.366 2.003-0.919s0.816-1.287 0.813-2.049v-0.826c0-0.197-0.020-0.393-0.060-0.588l-0.67-3.36c-0.047-0.241-0.149-0.468-0.299-0.663s-0.341-0.354-0.561-0.463c-0.765-0.381-1.37-1.022-1.706-1.808l-1.584-3.696c-0.231-0.54-0.616-1-1.107-1.323s-1.065-0.495-1.653-0.495h-12.72z"></path>
</symbol>
<symbol id="icon-check-circle" viewBox="0 0 32 32">
<path d="M16 30c-3.713 0-7.274-1.475-9.899-4.101s-4.101-6.186-4.101-9.899 1.475-7.274 4.101-9.899c2.626-2.626 6.186-4.101 9.899-4.101s7.274 1.475 9.899 4.101c2.626 2.626 4.101 6.186 4.101 9.899s-1.475 7.274-4.101 9.899c-2.625 2.626-6.186 4.101-9.899 4.101zM16 32c4.243 0 8.313-1.686 11.314-4.686s4.686-7.070 4.686-11.314c0-4.243-1.686-8.313-4.686-11.314s-7.070-4.686-11.314-4.686c-4.243 0-8.313 1.686-11.314 4.686s-4.686 7.070-4.686 11.314c0 4.243 1.686 8.313 4.686 11.314s7.070 4.686 11.314 4.686z"></path>
<path d="M21.94 9.94l-0.040 0.044-6.946 8.85-4.186-4.188c-0.284-0.265-0.66-0.409-1.049-0.402s-0.759 0.164-1.034 0.439c-0.275 0.275-0.432 0.646-0.439 1.034s0.137 0.765 0.402 1.049l5.292 5.294c0.143 0.142 0.312 0.254 0.499 0.33s0.387 0.112 0.588 0.108c0.201-0.004 0.4-0.048 0.584-0.13s0.349-0.2 0.487-0.348l7.984-9.98c0.272-0.285 0.42-0.666 0.414-1.060s-0.168-0.77-0.45-1.046c-0.282-0.276-0.66-0.43-1.054-0.429s-0.772 0.157-1.052 0.435z"></path>
</symbol>
<symbol id="icon-fuel-pump" viewBox="0 0 32 32">
<path d="M6 5c0-0.265 0.105-0.52 0.293-0.707s0.442-0.293 0.707-0.293h10c0.265 0 0.52 0.105 0.707 0.293s0.293 0.442 0.293 0.707v10c0 0.265-0.105 0.52-0.293 0.707s-0.442 0.293-0.707 0.293h-10c-0.265 0-0.52-0.105-0.707-0.293s-0.293-0.442-0.293-0.707v-10z"></path>
<path d="M2 4c0-1.061 0.421-2.078 1.172-2.828s1.768-1.172 2.828-1.172h12c1.061 0 2.078 0.421 2.828 1.172s1.172 1.768 1.172 2.828v16c1.061 0 2.078 0.421 2.828 1.172s1.172 1.768 1.172 2.828v1c0 0.265 0.105 0.52 0.293 0.707s0.442 0.293 0.707 0.293 0.52-0.105 0.707-0.293c0.187-0.188 0.293-0.442 0.293-0.707v-9h-1c-0.265 0-0.52-0.105-0.707-0.293s-0.293-0.442-0.293-0.707v-6.25c0-0.265 0.105-0.52 0.293-0.707s0.442-0.293 0.707-0.293h2.99c-0.022-0.952-0.106-1.788-0.402-2.444-0.158-0.381-0.435-0.702-0.788-0.916-0.368-0.22-0.928-0.39-1.8-0.39-0.265 0-0.52-0.105-0.707-0.293s-0.293-0.442-0.293-0.707 0.105-0.52 0.293-0.707c0.188-0.188 0.442-0.293 0.707-0.293 1.128-0.003 2.069 0.221 2.824 0.672 0.766 0.456 1.268 1.102 1.588 1.814 0.59 1.31 0.588 2.93 0.588 4.162v6.35c0 0.131-0.025 0.262-0.076 0.383s-0.124 0.232-0.217 0.325-0.203 0.167-0.325 0.217c-0.122 0.050-0.252 0.076-0.383 0.076h-1v9c0 0.796-0.316 1.559-0.879 2.121s-1.326 0.879-2.121 0.879c-0.796 0-1.559-0.316-2.121-0.879s-0.879-1.326-0.879-2.121v-1c0-0.53-0.211-1.039-0.586-1.414s-0.884-0.586-1.414-0.586v8h1c0.265 0 0.52 0.105 0.707 0.293s0.293 0.442 0.293 0.707-0.105 0.52-0.293 0.707c-0.188 0.187-0.442 0.293-0.707 0.293h-22c-0.265 0-0.52-0.105-0.707-0.293s-0.293-0.442-0.293-0.707 0.105-0.52 0.293-0.707c0.188-0.187 0.442-0.293 0.707-0.293h1v-26zM20 4c0-0.53-0.211-1.039-0.586-1.414s-0.884-0.586-1.414-0.586h-12c-0.53 0-1.039 0.211-1.414 0.586s-0.586 0.884-0.586 1.414v26h16v-26z"></path>
</symbol>
<symbol id="icon-gear" viewBox="0 0 32 32">
<path d="M16 9.508c-0.853 0-1.697 0.168-2.484 0.494s-1.503 0.804-2.106 1.407c-0.603 0.603-1.081 1.319-1.407 2.106s-0.494 1.632-0.494 2.484c0 0.853 0.168 1.697 0.494 2.484s0.804 1.503 1.407 2.106c0.603 0.603 1.319 1.081 2.106 1.407s1.632 0.494 2.484 0.494c1.722 0 3.373-0.684 4.591-1.901s1.901-2.869 1.901-4.591-0.684-3.373-1.901-4.591c-1.218-1.217-2.869-1.901-4.591-1.901zM11.508 16c0-1.191 0.473-2.334 1.316-3.176s1.985-1.316 3.176-1.316c1.191 0 2.334 0.473 3.176 1.316s1.316 1.985 1.316 3.176-0.473 2.334-1.316 3.176c-0.842 0.842-1.985 1.316-3.176 1.316s-2.334-0.473-3.176-1.316c-0.842-0.842-1.316-1.985-1.316-3.176z"></path>
<path d="M19.592 2.686c-1.054-3.58-6.13-3.58-7.184 0l-0.188 0.638c-0.074 0.25-0.202 0.48-0.376 0.674s-0.389 0.346-0.63 0.446c-0.241 0.1-0.501 0.144-0.761 0.131s-0.514-0.086-0.743-0.21l-0.584-0.32c-3.28-1.784-6.866 1.804-5.080 5.082l0.318 0.584c0.125 0.229 0.196 0.483 0.21 0.743s-0.031 0.52-0.131 0.761c-0.1 0.241-0.252 0.456-0.446 0.63s-0.424 0.303-0.674 0.376l-0.638 0.188c-3.58 1.054-3.58 6.13 0 7.184l0.638 0.188c0.25 0.074 0.48 0.202 0.674 0.376s0.346 0.389 0.446 0.63c0.1 0.241 0.144 0.501 0.131 0.761s-0.086 0.514-0.21 0.743l-0.32 0.584c-1.784 3.28 1.802 6.868 5.082 5.080l0.584-0.318c0.229-0.125 0.483-0.196 0.743-0.21s0.52 0.031 0.761 0.13c0.241 0.1 0.456 0.252 0.63 0.446s0.303 0.424 0.376 0.674l0.188 0.638c1.054 3.58 6.13 3.58 7.184 0l0.188-0.638c0.074-0.25 0.202-0.48 0.376-0.674s0.389-0.346 0.63-0.446c0.241-0.1 0.501-0.144 0.761-0.13s0.514 0.086 0.743 0.21l0.584 0.32c3.28 1.786 6.868-1.804 5.080-5.082l-0.318-0.584c-0.125-0.229-0.196-0.483-0.21-0.743s0.031-0.52 0.13-0.761c0.1-0.241 0.252-0.456 0.446-0.63s0.424-0.303 0.674-0.376l0.638-0.188c3.58-1.054 3.58-6.13 0-7.184l-0.638-0.188c-0.25-0.074-0.48-0.202-0.674-0.376s-0.346-0.389-0.446-0.63c-0.1-0.241-0.144-0.501-0.13-0.761s0.086-0.514 0.21-0.743l0.32-0.584c1.786-3.28-1.804-6.866-5.082-5.080l-0.584 0.318c-0.229 0.125-0.483 0.196-0.743 0.21s-0.52-0.031-0.761-0.131c-0.241-0.1-0.456-0.252-0.63-0.446s-0.303-0.424-0.376-0.674l-0.188-0.638zM14.326 3.252c0.492-1.67 2.856-1.67 3.348 0l0.188 0.638c0.158 0.536 0.434 1.030 0.808 1.446s0.836 0.742 1.352 0.956c0.516 0.214 1.074 0.309 1.632 0.28s1.103-0.184 1.593-0.452l0.582-0.32c1.528-0.83 3.2 0.84 2.368 2.37l-0.318 0.584c-0.267 0.491-0.421 1.035-0.45 1.593s0.066 1.116 0.28 1.632c0.214 0.516 0.541 0.978 0.957 1.352s0.91 0.649 1.446 0.807l0.636 0.188c1.67 0.492 1.67 2.856 0 3.348l-0.638 0.188c-0.536 0.158-1.030 0.434-1.446 0.808s-0.742 0.836-0.956 1.352c-0.214 0.516-0.309 1.074-0.28 1.632s0.184 1.103 0.452 1.593l0.32 0.582c0.83 1.528-0.84 3.2-2.37 2.368l-0.582-0.318c-0.491-0.268-1.036-0.422-1.594-0.451s-1.116 0.066-1.633 0.28c-0.517 0.214-0.979 0.541-1.352 0.957s-0.65 0.91-0.807 1.446l-0.188 0.636c-0.492 1.67-2.856 1.67-3.348 0l-0.188-0.638c-0.158-0.536-0.434-1.030-0.808-1.445s-0.835-0.742-1.352-0.956c-0.516-0.214-1.074-0.309-1.632-0.28s-1.102 0.184-1.593 0.451l-0.584 0.32c-1.528 0.83-3.2-0.84-2.368-2.37l0.318-0.582c0.268-0.491 0.423-1.036 0.452-1.594s-0.066-1.116-0.279-1.633c-0.214-0.517-0.541-0.979-0.957-1.353s-0.91-0.65-1.447-0.808l-0.638-0.188c-1.67-0.492-1.67-2.856 0-3.348l0.638-0.188c0.536-0.158 1.029-0.434 1.444-0.808s0.742-0.835 0.955-1.351c0.214-0.516 0.309-1.073 0.28-1.631s-0.183-1.102-0.45-1.592l-0.32-0.584c-0.83-1.528 0.84-3.2 2.37-2.368l0.584 0.318c0.491 0.267 1.035 0.421 1.593 0.451s1.115-0.066 1.632-0.28c0.516-0.214 0.978-0.54 1.352-0.956s0.65-0.909 0.808-1.445l0.188-0.638z"></path>
</symbol>
<symbol id="icon-Location" viewBox="0 0 32 32">
<path d="M23.061 16.762c-0.982 1.991-2.314 3.975-3.675 5.756-1.293 1.678-2.673 3.287-4.136 4.819-1.463-1.532-2.844-3.141-4.136-4.819-1.361-1.781-2.692-3.765-3.675-5.756-0.994-2.012-1.564-3.896-1.564-5.512 0-2.486 0.988-4.871 2.746-6.629s4.143-2.746 6.629-2.746c2.486 0 4.871 0.988 6.629 2.746s2.746 4.143 2.746 6.629c0 1.616-0.572 3.501-1.564 5.512zM15.25 30c0 0 11.25-10.661 11.25-18.75 0-2.984-1.185-5.845-3.295-7.955s-4.971-3.295-7.955-3.295c-2.984 0-5.845 1.185-7.955 3.295s-3.295 4.971-3.295 7.955c0 8.089 11.25 18.75 11.25 18.75z"></path>
<path d="M15.25 15c-0.995 0-1.948-0.395-2.652-1.098s-1.098-1.657-1.098-2.652c0-0.995 0.395-1.948 1.098-2.652s1.657-1.098 2.652-1.098c0.995 0 1.948 0.395 2.652 1.098s1.098 1.657 1.098 2.652c0 0.995-0.395 1.948-1.098 2.652s-1.657 1.098-2.652 1.098zM15.25 16.875c1.492 0 2.923-0.593 3.977-1.648s1.648-2.486 1.648-3.977c0-1.492-0.593-2.923-1.648-3.977s-2.486-1.648-3.977-1.648c-1.492 0-2.923 0.593-3.977 1.648s-1.648 2.486-1.648 3.977c0 1.492 0.593 2.923 1.648 3.977s2.486 1.648 3.977 1.648z"></path>
</symbol>
<symbol id="icon-Property-1Default" viewBox="0 0 32 32">
<path d="M16 5.496l-1.434-1.474c-3.366-3.46-9.538-2.266-11.766 2.084-1.046 2.046-1.282 5 0.628 8.77 1.84 3.63 5.668 7.978 12.572 12.714 6.904-4.736 10.73-9.084 12.572-12.714 1.91-3.772 1.676-6.724 0.628-8.77-2.228-4.35-8.4-5.546-11.766-2.086l-1.434 1.476zM16 30c-30.666-20.264-9.442-36.080-0.352-27.714 0.12 0.111 0.237 0.225 0.352 0.342 0.113-0.118 0.23-0.232 0.352-0.34 9.088-8.372 30.314 7.446-0.352 27.712z"></path>
</symbol>
<symbol id="icon-heart" viewBox="0 0 32 32">
<path d="M16 2.628c8.876-9.124 31.068 6.842 0 27.372-31.068-20.528-8.876-36.496 0-27.372z"></path>
</symbol>
<symbol id="icon-Property-1Default-1" viewBox="0 0 32 32">
<path d="M2.294 8.294c0.093-0.093 0.203-0.167 0.325-0.217s0.252-0.076 0.383-0.076c0.132 0 0.262 0.026 0.383 0.076s0.232 0.124 0.325 0.217l11.292 11.294 11.292-11.294c0.093-0.093 0.203-0.167 0.325-0.217s0.252-0.076 0.383-0.076c0.131 0 0.262 0.026 0.383 0.076s0.232 0.124 0.325 0.217 0.167 0.203 0.217 0.325c0.050 0.121 0.076 0.252 0.076 0.383s-0.026 0.262-0.076 0.383c-0.050 0.121-0.124 0.232-0.217 0.325l-12 12c-0.093 0.093-0.203 0.167-0.325 0.217s-0.252 0.076-0.383 0.076c-0.132 0-0.262-0.026-0.383-0.076s-0.232-0.124-0.325-0.217l-12-12c-0.093-0.093-0.167-0.203-0.217-0.325s-0.076-0.252-0.076-0.383c0-0.132 0.026-0.262 0.076-0.383s0.124-0.232 0.217-0.325z"></path>
</symbol>
<symbol id="icon-background-2" viewBox="0 0 276 284">
<path d="M15.744 0.113c-0.087-0.15-0.304-0.15-0.39 0l-0.585 1.014h-13.417c-0.747 0-1.352 0.605-1.352 1.352v28.169c0 0.747 0.605 1.352 1.352 1.352h28.394c0.747 0 1.352-0.605 1.352-1.352v-28.169c0-0.747-0.605-1.352-1.352-1.352h-13.417l-0.585-1.014z"></path>
<path fill="#3470ff" style="fill: var(--color2, #3470ff)" d="M15.354 0.113v0zM15.744 0.113v0zM14.769 1.127v0.113h0.065l0.033-0.056-0.098-0.056zM16.33 1.127l-0.098 0.056 0.033 0.056h0.065v-0.113zM15.452 0.169c0.043-0.075 0.152-0.075 0.195 0l0.195-0.113c-0.13-0.225-0.455-0.225-0.585 0l0.195 0.113zM14.866 1.183l0.585-1.014-0.195-0.113-0.585 1.014 0.195 0.113zM1.352 1.239h13.417v-0.225h-13.417v0.225zM0.113 2.479c0-0.685 0.555-1.239 1.239-1.239v-0.225c-0.809 0-1.465 0.656-1.465 1.465h0.225zM0.113 30.648v-28.169h-0.225v28.169h0.225zM1.352 31.887c-0.685 0-1.239-0.555-1.239-1.239h-0.225c0 0.809 0.656 1.465 1.465 1.465v-0.225zM29.746 31.887h-28.394v0.225h28.394v-0.225zM30.986 30.648c0 0.684-0.555 1.239-1.239 1.239v0.225c0.809 0 1.465-0.656 1.465-1.465h-0.225zM30.986 2.479v28.169h0.225v-28.169h-0.225zM29.746 1.239c0.684 0 1.239 0.555 1.239 1.239h0.225c0-0.809-0.656-1.465-1.465-1.465v0.225zM16.33 1.239h13.417v-0.225h-13.417v0.225zM15.647 0.169l0.585 1.014 0.195-0.113-0.585-1.014-0.195 0.113z"></path>
</symbol>
<symbol id="icon-background" viewBox="0 0 276 284">
<defs>
<mask id="mask-icon-background" fill="white">
    <path
    fill-rule="evenodd"
    clip-rule="evenodd"
    d="M139.732 1C138.962 -0.333333 137.038 -0.333333 136.268 1L131.072 10H12C5.37258 10 0 15.3726 0 22V272C0 278.627 5.37258 284 12 284H264C270.627 284 276 278.627 276 272V22C276 15.3726 270.627 10 264 10H144.928L139.732 1Z"
    />
</mask>
</defs>
<path
fill-rule="evenodd"
clip-rule="evenodd"
d="M139.732 1C138.962 -0.333333 137.038 -0.333333 136.268 1L131.072 10H12C5.37258 10 0 15.3726 0 22V272C0 278.627 5.37258 284 12 284H264C270.627 284 276 278.627 276 272V22C276 15.3726 270.627 10 264 10H144.928L139.732 1Z"
/>
<path
d="M136.268 1L135.402 0.499997V0.5L136.268 1ZM139.732 1L140.598 0.5V0.499997L139.732 1ZM131.072 10V11H131.649L131.938 10.5L131.072 10ZM144.928 10L144.062 10.5L144.351 11H144.928V10ZM137.134 1.5C137.519 0.833333 138.481 0.833332 138.866 1.5L140.598 0.499997C139.443 -1.5 136.557 -1.5 135.402 0.499997L137.134 1.5ZM131.938 10.5L137.134 1.5L135.402 0.5L130.206 9.50003L131.938 10.5ZM12 11H131.072V9.00003H12V11ZM1 22C1 15.9249 5.92487 11 12 11V9.00003C4.8203 9.00003 -1 14.8203 -1 22H1ZM1 272V22H-1V272H1ZM12 283C5.92487 283 1 278.075 1 272H-1C-1 279.18 4.8203 285 12 285V283ZM264 283H12V285H264V283ZM275 272C275 278.075 270.075 283 264 283V285C271.18 285 277 279.18 277 272H275ZM275 22V272H277V22H275ZM264 11C270.075 11 275 15.9249 275 22H277C277 14.8203 271.18 9.00003 264 9.00003V11ZM144.928 11H264V9.00003H144.928V11ZM138.866 1.5L144.062 10.5L145.794 9.50003L140.598 0.5L138.866 1.5Z"
fill="#3470FF"
mask="url(#mask-icon-background)"
/>
</symbol>
<symbol id="icon-travel_11903916" viewBox="0 0 60 32">
<path fill="#3470ff" d="M14.491-0.035c0.23-0.001 0.46-0.001 0.689-0.002 0.609-0.001 1.218-0.001 1.827 0 0.377 0.001 0.753 0.001 1.13 0.001 2.854 0.002 5.705 0.011 8.555 0.198 0.113 0.007 0.226 0.015 0.343 0.022 3.686 0.251 3.686 0.251 4.914 0.691 0.086 0.030 0.171 0.060 0.259 0.090 2.808 1.018 6.009 2.664 8.145 4.799 0.174 0.022 0.348 0.038 0.523 0.051 0.107 0.009 0.215 0.017 0.325 0.026 0.226 0.017 0.452 0.034 0.677 0.050 0.659 0.054 1.186 0.139 1.768 0.462 0.147 0.331 0.147 0.331 0.118 0.706-0.171 0.275-0.36 0.472-0.588 0.706 0.528 0.527 1.028 0.583 1.735 0.684 4.065 0.664 7.89 2.155 11.206 4.61 0.129 0.094 0.129 0.094 0.26 0.19 0.264 0.193 0.528 0.387 0.791 0.582 0.082 0.060 0.163 0.121 0.247 0.183 0.57 0.429 0.57 0.429 0.701 0.692-0.349 0.116-0.699 0.233-1.059 0.353 0 0.155 0 0.311 0 0.471 0.388 0 0.776 0 1.176 0-0.039 0.078-0.078 0.155-0.118 0.235-0.243 0.049-0.243 0.049-0.537 0.074-0.146 0.013-0.146 0.013-0.295 0.027-0.113 0.009-0.113 0.009-0.227 0.017 0 0.078 0 0.155 0 0.235 0.388 0.039 0.776 0.078 1.176 0.118-0.443 0.222-0.592 0.261-1.059 0.235 0 0.116 0 0.233 0 0.353 0.349 0 0.699 0 1.059 0-0.354 0.354-0.685 0.305-1.176 0.353 0 0.078 0 0.155 0 0.235 0.388 0 0.776 0 1.176 0-0.039 0.078-0.078 0.155-0.118 0.235-0.243 0.049-0.243 0.049-0.537 0.074-0.146 0.013-0.146 0.013-0.295 0.027-0.113 0.009-0.113 0.009-0.227 0.017 0 0.116 0 0.233 0 0.353 0.388 0 0.776 0 1.176 0-0.282 0.282-0.392 0.276-0.779 0.309-0.144 0.013-0.144 0.013-0.291 0.027-0.111 0.009-0.111 0.009-0.223 0.017 0 0.116 0 0.233 0 0.353 0.226-0.008 0.452-0.015 0.678-0.023 0.263 0.023 0.263 0.023 0.852 0.258 0.078-0.699 0.155-1.398 0.235-2.118 0.395 0.395 0.663 0.736 0.963 1.199 0.256 0.421 0.256 0.421 0.566 0.801 0.204 2.358-0.25 5.16-1.265 7.301-0.285 0.614-0.287 1.131-0.287 1.794-0.011 0.909-0.011 0.909-0.322 1.324-0.307 0.221-0.603 0.373-0.95 0.522-0.129 0.075-0.129 0.075-0.261 0.151-0.613 0.319-1.159 0.327-1.835 0.297-1.148-0.043-2.228 0.171-3.346 0.397-1.564 0.315-3.123 0.579-4.706 0.779-0.090 0.012-0.179 0.023-0.272 0.035-0.644 0.083-1.288 0.156-1.934 0.222-0.105 0.011-0.21 0.022-0.318 0.033-2.114 0.213-4.22 0.245-6.342 0.239-0.27-0.001-0.539-0.001-0.809-0.001-2.585-0.003-5.139-0.069-7.707-0.389-0.247-0.029-0.494-0.057-0.741-0.085-0.359-0.041-0.718-0.083-1.077-0.127-1.271-0.152-2.546-0.263-3.822-0.376-1.927-0.171-3.851-0.36-5.772-0.588-0.003-0.174-0.003-0.174-0.005-0.351-0.068-4.292-0.429-8.48-1.759-12.59-0.026-0.085-0.052-0.171-0.079-0.259-0.183-0.556-0.385-0.849-0.87-1.204-0.103-0.078-0.207-0.155-0.313-0.235-0.466-0.321-0.756-0.359-1.327-0.302-0.743 0.431-1.024 1.087-1.294 1.882-0.232 0.894-0.41 1.778-0.353 2.706 0.012-0.103 0.023-0.205 0.035-0.311 0.167-1.327 0.377-2.714 1.377-3.689 0.417-0.244 0.691-0.309 1.176-0.235 0.609 0.312 1.128 0.651 1.412 1.294-0.262-0.122-0.468-0.233-0.684-0.426-0.382-0.24-0.639-0.224-1.081-0.162-0.997 0.742-1.299 2.090-1.478 3.259-0.335 2.905 0.030 6.532 1.835 8.943 0.35 0.406 0.639 0.595 1.172 0.673 0.626-0.091 0.987-0.552 1.412-0.993-0.237 0.848-0.529 1.528-1.206 2.11-0.47 0.181-0.886 0.202-1.382 0.125-1.314-0.644-1.994-2.16-2.46-3.48-0.391-1.209-0.702-2.431-0.834-3.697-0.013-0.111-0.026-0.222-0.039-0.336-0.236-2.327-0.345-5.537 1.113-7.524 0.109-0.128 0.221-0.254 0.338-0.375 0.058-0.064 0.116-0.127 0.176-0.193 0.273-0.247 0.539-0.279 0.898-0.329 0.713 0.081 1.248 0.491 1.75 0.993-0.576-0.946-0.576-0.946-1.412-1.647-0.458-0.008-0.727 0.063-1.125 0.287-2.034 2.139-1.99 5.576-1.956 8.324 0.002 0.251 0.003 0.501 0.005 0.752 0.004 0.605 0.010 1.21 0.017 1.815-0.836-0.397-1.614-0.848-2.39-1.353-0.227-0.146-0.454-0.292-0.681-0.438-0.115-0.074-0.229-0.147-0.348-0.223-0.551-0.351-1.106-0.694-1.663-1.037-0.205-0.126-0.409-0.253-0.614-0.379-0.252-0.156-0.504-0.311-0.756-0.467-1.627-1.004-1.627-1.004-2.255-1.632-0.066 0.138-0.066 0.138-0.132 0.279-0.221 0.309-0.221 0.309-0.559 0.485-0.368 0.059-0.368 0.059-0.669-0.044-1.003-0.874-1.284-2.274-1.463-3.544-0.011-0.287-0.015-0.573-0.016-0.86-0-0.122-0-0.122-0-0.246-0-0.172 0-0.343 0.001-0.515 0.001-0.257 0-0.514-0.001-0.771-0.002-3.293-0.002-3.293 0.598-4.182 0.276-0.419 0.421-0.822 0.58-1.293 0.435-1.211 1.079-2.071 2.132-2.838 0.241-0.111 0.241-0.111 0.471-0.118 0.206 0.165 0.206 0.165 0.419 0.412 0.535 0.574 1.144 0.957 1.816 1.353-0.419-0.432-0.858-0.823-1.321-1.206-0.217-0.214-0.315-0.403-0.443-0.676 0.829-1.222 1.674-2.354 2.706-3.412 0.081-0.088 0.161-0.176 0.245-0.267 2.027-2.159 4.528-2.359 7.305-2.357zM13.647 1.176c-0.516 1.755-0.422 3.944 0.353 5.596 0.242 0.433 0.242 0.433 0.588 0.757 0.335 0.059 0.335 0.059 0.723 0.058 0.15 0.004 0.301 0.008 0.456 0.012 0.166 0.002 0.333 0.005 0.499 0.007 0.175 0.004 0.349 0.008 0.524 0.012 0.466 0.010 0.932 0.018 1.398 0.025 0.276 0.004 0.552 0.009 0.827 0.013 1.236 0.021 2.472 0.036 3.708 0.050 0.53 0.006 1.060 0.012 1.59 0.019 0.888 0.011 1.776 0.021 2.664 0.031 1.017 0.012 2.033 0.024 3.050 0.036 0.992 0.012 1.984 0.024 2.975 0.035 0.416 0.005 0.832 0.010 1.248 0.015 2.388 0.029 4.775 0.048 7.162 0.040-0.319-0.501-0.319-0.501-0.819-0.782-0.289-0.039-0.573-0.058-0.864-0.070-0.112-0.007-0.225-0.015-0.341-0.022-0.25-0.016-0.499-0.031-0.749-0.044-0.42-0.023-0.839-0.052-1.259-0.082-0.887-0.063-1.775-0.121-2.662-0.178-0.445-0.029-0.89-0.058-1.334-0.087-0.838-0.055-1.676-0.109-2.513-0.164-0.956-0.062-1.911-0.124-2.867-0.187-1.962-0.128-3.924-0.256-5.886-0.383 1.64 0.054 3.279 0.108 4.919 0.162 0.121 0.004 0.242 0.008 0.367 0.012 4.12 0.136 8.241 0.273 12.361 0.414-0.142-0.142-0.142-0.142-0.287-0.287-0.14-0.14-0.279-0.279-0.419-0.419-0.368-0.036-0.734-0.065-1.102-0.090-0.12-0.008-0.239-0.017-0.363-0.025-0.409-0.028-0.818-0.056-1.226-0.084-0.29-0.020-0.58-0.040-0.869-0.060-4.616-0.317-9.234-0.616-13.851-0.918 1.378-0.022 2.755 0.037 4.132 0.087 0.439 0.016 0.878 0.032 1.317 0.047 0.853 0.030 1.705 0.061 2.558 0.092 1.16 0.042 2.319 0.084 3.479 0.125 0.43 0.015 0.861 0.031 1.291 0.047 0.266 0.010 0.532 0.019 0.798 0.029 0.118 0.004 0.236 0.009 0.357 0.013 0.807 0.028 1.614 0.035 2.422 0.030-0.193-0.199-0.39-0.394-0.588-0.588-0.093-0.093-0.093-0.093-0.188-0.189-0.436-0.253-0.873-0.254-1.37-0.288-0.113-0.009-0.226-0.018-0.342-0.027-0.386-0.030-0.772-0.057-1.159-0.084-0.139-0.010-0.277-0.020-0.42-0.030-1.032-0.073-2.065-0.141-3.097-0.208-0.445-0.029-0.89-0.058-1.334-0.087-0.838-0.055-1.676-0.109-2.513-0.164-0.956-0.062-1.911-0.124-2.867-0.187-1.962-0.128-3.924-0.256-5.886-0.383 0.069 0.002 0.137 0.005 0.208 0.007 1.684 0.060 3.368 0.119 5.052 0.177 0.814 0.028 1.629 0.057 2.443 0.085 0.789 0.028 1.578 0.055 2.366 0.082 0.298 0.010 0.596 0.021 0.894 0.032 2.072 0.074 4.14 0.101 6.213 0.087-0.39-0.429-0.752-0.607-1.328-0.654-0.101-0.009-0.202-0.017-0.306-0.026-0.111-0.008-0.221-0.017-0.335-0.025-0.118-0.010-0.237-0.019-0.359-0.029-1.576-0.124-3.153-0.225-4.731-0.328-0.445-0.029-0.889-0.058-1.333-0.087-0.837-0.055-1.674-0.109-2.511-0.164-0.955-0.062-1.91-0.125-2.865-0.187-1.96-0.128-3.92-0.256-5.88-0.383 0.068 0.002 0.136 0.005 0.206 0.007 1.673 0.060 3.346 0.118 5.019 0.177 0.809 0.028 1.618 0.057 2.427 0.085 0.783 0.028 1.567 0.055 2.35 0.082 0.296 0.010 0.593 0.021 0.889 0.032 1.978 0.071 3.952 0.101 5.931 0.087-1.593-1.062-3.738-0.991-5.574-1.096-0.158-0.010-0.317-0.019-0.475-0.029-6.784-0.888-6.784-0.888-12.892 0.419zM7.387 3.306c-0.11 0.113-0.219 0.227-0.328 0.341-0.089 0.092-0.178 0.184-0.269 0.279-0.358 0.39-0.643 0.73-0.79 1.25 0.244 0.26 0.244 0.26 0.588 0.471 0.275-0.032 0.55-0.072 0.824-0.118 0.351-0.026 0.7-0.032 1.051-0.037 0.089-0.003 0.179-0.007 0.271-0.010 0.672-0.007 1.18 0.132 1.736 0.518 0.216 0.248 0.216 0.248 0.346 0.493 0.045 0.082 0.089 0.163 0.136 0.248 0.035 0.066 0.071 0.133 0.107 0.201 0.125 0.152 0.125 0.152 0.419 0.125 0.095-0.002 0.189-0.005 0.287-0.007 0.020-0.56-0.004-0.815-0.387-1.239-0.296-0.263-0.595-0.516-0.907-0.761 0.106 0.027 0.106 0.027 0.215 0.055 0.28 0.069 0.561 0.126 0.844 0.181-0.246-0.454-0.513-0.761-0.904-1.096-0.095-0.082-0.19-0.164-0.288-0.249-0.072-0.061-0.145-0.122-0.219-0.185 0.438 0.143 0.868 0.295 1.294 0.471-0.054-0.505-0.341-0.709-0.713-1.029-0.108-0.094-0.216-0.188-0.328-0.285-0.125-0.106-0.125-0.106-0.253-0.215 0.427 0.155 0.854 0.311 1.294 0.471 0-0.155 0-0.311 0-0.471-0.228-0.229-0.228-0.229-0.522-0.426-0.527-0.378-0.527-0.378-0.654-0.632 0.098 0.051 0.098 0.051 0.198 0.103 0.085 0.044 0.17 0.087 0.258 0.132 0.085 0.044 0.169 0.087 0.256 0.132 0.223 0.119 0.223 0.119 0.464 0.103 0.039-0.155 0.078-0.311 0.118-0.471-1.5-0.8-3.080 0.596-4.142 1.659zM12.824 9.176c0 0.039 0 0.078 0 0.118 0.194 0 0.388 0 0.588 0 0-0.039 0-0.078 0-0.118-0.194 0-0.388 0-0.588 0zM13.412 9.294c0.382 0.212 0.753 0.317 1.178 0.419 0.215 0.053 0.215 0.053 0.434 0.106 0.114 0.028 0.114 0.028 0.231 0.056 3.048 0.749 6.024 1.721 8.863 3.066 0.085 0.040 0.17 0.080 0.258 0.122 0.548 0.261 1.088 0.535 1.624 0.82 0.095 0.051 0.191 0.101 0.289 0.153 0.311 0.166 0.621 0.333 0.931 0.501 0.095 0.051 0.19 0.102 0.288 0.155 0.093 0.051 0.185 0.102 0.281 0.154 0.094 0.052 0.189 0.103 0.286 0.157 0.277 0.174 0.277 0.174 0.52 0.395 1.006 0.887 2.216 0.7 3.478 0.669 0.266-0.004 0.532-0.007 0.798-0.010 0.674-0.009 1.349-0.023 2.023-0.039 0.613-0.014 1.227-0.027 1.84-0.038 4.157-0.079 8.312-0.194 12.465-0.391 0.149-0.007 0.299-0.014 0.453-0.021 1.614-0.077 3.227-0.169 4.84-0.277 0.148-0.010 0.295-0.019 0.448-0.029 0.136-0.009 0.271-0.019 0.411-0.028 0.12-0.008 0.24-0.016 0.364-0.025 0.287-0.016 0.287-0.016 0.521-0.15-0.173-0.673-0.519-1.22-0.941-1.765-0.078-0.039-0.155-0.078-0.235-0.118 0.032 0.065 0.065 0.13 0.098 0.197 0.242 0.483 0.483 0.967 0.725 1.45-0.078-0.001-0.156-0.002-0.236-0.002-0.805-0.005-1.604 0.024-2.408 0.071-0.265 0.015-0.531 0.030-0.796 0.045-0.139 0.008-0.278 0.016-0.421 0.024-5.26 0.295-10.527 0.482-15.794 0.548-0.724 0.011-1.447 0.035-2.171 0.068-4.786 0.211-4.786 0.211-6.724-1.472-0.474-0.385-1.001-0.665-1.539-0.951-0.106-0.057-0.211-0.114-0.32-0.173-3.439-1.82-8.092-3.778-12.062-3.687zM0.868 11.706c-0.053 0.058-0.107 0.116-0.162 0.176 0.039 0.078 0.078 0.155 0.118 0.235 0.233-0.039 0.466-0.078 0.706-0.118-0.078-0.155-0.155-0.311-0.235-0.471-0.25-0.027-0.25-0.027-0.426 0.176zM1.059 12.353c-0.078 0.155-0.155 0.311-0.235 0.471 0.272-0.116 0.544-0.233 0.824-0.353 0-0.039 0-0.078 0-0.118-0.194 0-0.388 0-0.588 0zM0.706 12.824c0.118 0.235 0.118 0.235 0.118 0.235zM1.529 12.824c-0.138 0.146-0.138 0.146-0.279 0.294-0.052 0.055-0.104 0.109-0.157 0.165-0.714 1.159-0.522 3.057-0.248 4.33 0.18 0.724 0.387 1.486 0.92 2.034 0.244 0.14 0.244 0.14 0.471 0.235 0.24-0.16 0.24-0.16 0.471-0.353 0-0.078 0-0.155 0-0.235 0.078 0 0.155 0 0.235 0-0.156-1.639-0.343-3.269-0.64-4.89-0.023-0.131-0.045-0.263-0.069-0.398-0.035-0.182-0.035-0.182-0.070-0.367-0.020-0.107-0.040-0.213-0.060-0.323-0.081-0.277-0.081-0.277-0.347-0.411-0.074-0.027-0.149-0.054-0.225-0.081zM0.588 13.059c0.118 0.235 0.118 0.235 0.118 0.235zM0.471 13.412c0.118 0.353 0.118 0.353 0.118 0.353zM0.353 14c0.118 0.353 0.118 0.353 0.118 0.353zM3.176 14.588c0.157 1.042 0.321 2.081 0.507 3.118 0.022 0.134 0.044 0.268 0.067 0.406 0.134 0.733 0.225 1.201 0.838 1.653 0.116-0.058 0.116-0.058 0.235-0.118 0.302 0.117 0.592 0.242 0.886 0.379 0.18 0.081 0.36 0.163 0.54 0.244 0.284 0.13 0.568 0.26 0.852 0.39 0.273 0.125 0.547 0.249 0.822 0.373 0.085 0.040 0.17 0.079 0.257 0.12 0.483 0.233 0.483 0.233 0.997 0.141-2.409-1.299-2.409-1.299-4.824-2.588 0.547 0.171 1.065 0.387 1.586 0.623 0.168 0.075 0.335 0.15 0.503 0.224 0.262 0.117 0.524 0.235 0.785 0.353 0.254 0.115 0.508 0.228 0.763 0.341 0.117 0.054 0.117 0.054 0.237 0.109 0.46 0.212 0.46 0.212 0.949 0.114-0.109-0.058-0.218-0.115-0.331-0.174-0.409-0.216-0.818-0.432-1.226-0.648-0.176-0.093-0.352-0.186-0.529-0.279-1.802-0.95-1.802-0.95-2.621-1.487 0.483 0.209 0.967 0.418 1.45 0.628 0.164 0.071 0.328 0.142 0.492 0.213 0.159 0.069 0.319 0.138 0.478 0.207 0.156 0.067 0.311 0.135 0.467 0.202 0.505 0.218 1.005 0.446 1.5 0.687 0.227 0.093 0.227 0.093 0.555-0.054-0.124-0.067-0.124-0.067-0.251-0.134-1.572-0.842-3.141-1.687-4.69-2.572 1.624 0.668 3.239 1.351 4.841 2.070 0.118 0.052 0.235 0.105 0.356 0.159 0.104 0.047 0.208 0.093 0.315 0.142 0.243 0.115 0.243 0.115 0.487 0.1-0.085-0.39-0.085-0.39-0.488-0.551-0.165-0.073-0.331-0.145-0.497-0.215-0.089-0.039-0.178-0.078-0.27-0.118-0.287-0.125-0.575-0.249-0.862-0.373-0.187-0.081-0.373-0.162-0.56-0.243-0.138-0.060-0.138-0.060-0.279-0.121-0.373-0.163-0.745-0.327-1.117-0.491-0.281-0.123-0.564-0.241-0.847-0.36-0.18-0.078-0.359-0.157-0.539-0.235-0.082-0.033-0.165-0.066-0.249-0.101-0.725-0.324-0.994-0.832-1.277-1.551-0.069-0.192-0.131-0.386-0.191-0.581-0.039 0-0.078 0-0.118 0zM20.471 16.235c-0.105 0.385-0.055 0.593 0.119 0.949 0.761 1.251 1.961 2.074 3.198 2.805 0.21 0.126 0.413 0.26 0.618 0.394 0.658 0.393 1.146 0.641 1.919 0.463 0.323-0.092 0.642-0.195 0.961-0.3 1.813-0.562 3.779-0.51 5.656-0.546 0-0.039 0-0.078 0-0.118-2.347-0.263-4.704-0.416-7.059-0.588 2.135 0 4.271 0 6.471 0-0.484-0.501-0.484-0.501-1.096-0.567-0.125-0.009-0.25-0.019-0.378-0.028-0.134-0.008-0.268-0.016-0.406-0.024-0.138-0.010-0.275-0.020-0.417-0.030-0.44-0.031-0.88-0.058-1.32-0.086-0.298-0.020-0.597-0.041-0.895-0.062-0.731-0.051-1.462-0.097-2.193-0.144 1.902 0 3.805 0 5.765 0-0.196-0.384-0.196-0.384-0.554-0.418-0.203-0.015-0.203-0.015-0.41-0.029-0.23-0.018-0.23-0.018-0.464-0.036-0.168-0.011-0.335-0.022-0.503-0.033-0.171-0.013-0.342-0.025-0.513-0.038-0.451-0.033-0.901-0.065-1.352-0.096-0.541-0.038-1.081-0.078-1.622-0.117-0.821-0.060-1.643-0.117-2.464-0.174 3.436 0.058 3.436 0.058 6.941 0.118-0.503-0.503-0.556-0.531-1.215-0.578-0.226-0.018-0.226-0.018-0.457-0.036-0.164-0.011-0.328-0.021-0.492-0.032-0.168-0.012-0.336-0.025-0.504-0.038-0.442-0.033-0.883-0.063-1.325-0.093-0.531-0.036-1.061-0.076-1.591-0.115-0.805-0.059-1.61-0.113-2.415-0.169 2.252 0.039 4.504 0.078 6.824 0.118-1.191-1.191-3.136-0.886-4.734-0.929-0.29-0.008-0.581-0.017-0.871-0.027-0.401-0.013-0.802-0.022-1.204-0.030-0.182-0.007-0.182-0.007-0.368-0.014-0.761-0.009-1.133 0.068-1.647 0.646zM48.235 16.706c-0.596 0.894-0.323 2.010-0.127 3.002 0.192 0.618 0.398 0.995 0.96 1.334 0.559 0.203 1.13 0.182 1.718 0.171 0.114-0.001 0.228-0.002 0.346-0.003 0.818-0.014 1.599-0.081 2.397-0.269-0.416-0.277-0.639-0.279-1.134-0.31-0.138-0.009-0.275-0.018-0.417-0.027-0.175-0.010-0.35-0.020-0.53-0.031-0.556-0.034-1.111-0.068-1.684-0.103 1.514-0.039 3.028-0.078 4.588-0.118 0.039-0.116 0.078-0.233 0.118-0.353-0.592-0.092-1.18-0.148-1.779-0.181-0.078-0.005-0.156-0.009-0.236-0.014-0.287-0.017-0.574-0.032-0.86-0.048-0.643-0.036-1.286-0.073-1.949-0.11 1.708-0.039 3.416-0.078 5.176-0.118 0.058-0.175 0.058-0.175 0.118-0.353-1.32-0.078-2.64-0.155-4-0.235 0-0.039 0-0.078 0-0.118 1.359-0.039 2.718-0.078 4.118-0.118 0.039-0.155 0.078-0.311 0.118-0.471-1.902-0.116-3.805-0.233-5.765-0.353 1.864-0.039 3.727-0.078 5.647-0.118-0.078-0.155-0.155-0.311-0.235-0.471-0.119-0.006-0.237-0.013-0.359-0.020-0.445-0.024-0.89-0.049-1.335-0.074-0.192-0.011-0.383-0.021-0.575-0.032-0.277-0.015-0.555-0.031-0.832-0.046-0.084-0.005-0.168-0.009-0.255-0.014-0.65-0.037-1.288-0.102-1.938-0.167 1.592-0.039 3.184-0.078 4.824-0.118-0.058-0.116-0.058-0.116-0.118-0.235-0.323-0.108-0.516-0.133-0.848-0.135-0.099-0.001-0.199-0.002-0.301-0.002-0.16-0-0.16-0-0.324-0-0.11-0-0.221-0.001-0.335-0.001-0.234-0.001-0.467-0.001-0.701-0.001-0.357-0-0.714-0.002-1.070-0.005-0.227-0-0.454-0.001-0.681-0.001-0.106-0.001-0.213-0.002-0.323-0.003-0.737-0-0.737-0-1.417 0.265zM37.176 17.059c0 0.039 0 0.078 0 0.118 1.98 0.039 3.96 0.078 6 0.118-2.89 0.169-2.89 0.169-3.798 0.222-0.239 0.014-0.478 0.028-0.718 0.043-0.184 0.011-0.184 0.011-0.372 0.021-0.612 0.037-1.213 0.086-1.819 0.185-0.039 0.155-0.078 0.311-0.118 0.471 2.601 0 5.202 0 7.882 0-2.524 0.155-5.047 0.311-7.647 0.471 0.078 0.155 0.155 0.311 0.235 0.471 2.213 0.039 4.426 0.078 6.706 0.118-2.926 0.162-2.926 0.162-3.851 0.211-0.241 0.014-0.481 0.028-0.722 0.042-0.126 0.006-0.252 0.013-0.381 0.019-0.119 0.007-0.239 0.014-0.362 0.022-0.104 0.006-0.208 0.012-0.315 0.017-0.276 0.021-0.276 0.021-0.487 0.277 0.215 0.265 0.215 0.265 0.527 0.264 0.184-0.001 0.184-0.001 0.372-0.002 0.139-0 0.278-0 0.421-0 0.151-0.001 0.301-0.002 0.456-0.004 0.154-0 0.307-0.001 0.466-0.001 0.409-0.001 0.818-0.003 1.227-0.006 0.417-0.002 0.834-0.003 1.251-0.005 0.819-0.003 1.637-0.007 2.456-0.012-0.074 0.004-0.149 0.008-0.225 0.012-0.773 0.041-1.546 0.083-2.319 0.126-0.289 0.016-0.577 0.031-0.866 0.047-0.414 0.022-0.829 0.045-1.243 0.068-0.129 0.006-0.259 0.013-0.392 0.020-0.12 0.007-0.24 0.014-0.364 0.021-0.106 0.006-0.212 0.012-0.321 0.017-0.302 0.027-0.302 0.027-0.623 0.277 0.21 0.259 0.21 0.259 0.487 0.264 0.104-0.001 0.208-0.001 0.315-0.002 0.118-0 0.236-0 0.357-0 0.127-0.001 0.255-0.002 0.386-0.004 0.13-0 0.26-0.001 0.395-0.001 0.417-0.001 0.834-0.004 1.252-0.007 0.282-0.001 0.565-0.002 0.847-0.003 0.693-0.002 1.386-0.007 2.080-0.012-2.504 0.175-2.504 0.175-5.059 0.353 0.45 0.225 0.613 0.266 1.092 0.273 0.124 0.002 0.248 0.005 0.376 0.007 0.134 0.001 0.267 0.002 0.405 0.003 0.207 0.002 0.207 0.002 0.419 0.004 0.292 0.002 0.585 0.004 0.877 0.005 0.446 0.002 0.891 0.010 1.337 0.017 0.284 0.002 0.569 0.003 0.853 0.004 0.133 0.003 0.265 0.006 0.402 0.009 0.775-0.004 1.236-0.104 1.831-0.614 0.453-0.466 0.611-1.010 0.703-1.641-0.144-1.023-0.547-1.77-1.353-2.419-0.332-0.166-0.612-0.134-0.983-0.135-0.077-0-0.153-0.001-0.233-0.001-0.255-0.001-0.509-0.001-0.763-0.001-0.177-0-0.354-0.001-0.531-0.001-0.372-0.001-0.744-0.001-1.115-0.001-0.475 0-0.95-0.002-1.425-0.004-0.366-0.001-0.732-0.002-1.098-0.002-0.175-0-0.35-0.001-0.525-0.002-0.246-0.001-0.492-0.001-0.737-0-0.14-0-0.279-0-0.423-0-0.444 0.032-0.802 0.129-1.225 0.264zM6 20.471c0.332 0.387 0.765 0.617 1.199 0.872 0.082 0.049 0.164 0.098 0.249 0.148 0.173 0.103 0.347 0.206 0.521 0.308 0.266 0.157 0.532 0.315 0.797 0.472 0.169 0.1 0.338 0.2 0.506 0.3 0.079 0.047 0.159 0.094 0.241 0.143 0.317 0.186 0.608 0.346 0.958 0.463-0.019-0.226-0.019-0.226-0.118-0.471-0.23-0.182-0.23-0.182-0.524-0.326-0.109-0.058-0.217-0.116-0.329-0.176-0.116-0.060-0.233-0.12-0.353-0.182-0.117-0.062-0.235-0.124-0.355-0.188-0.234-0.124-0.469-0.247-0.703-0.37-0.277-0.146-0.553-0.294-0.827-0.445-0.598-0.382-0.598-0.382-1.261-0.548zM12.471 23.294c0.118 0.353 0.118 0.353 0.118 0.353zM57.507 24c-0.159 0.033-0.159 0.033-0.321 0.066-0.081 0.017-0.162 0.034-0.245 0.051 0 0.078 0 0.155 0 0.235 0.155 0 0.311 0 0.471 0-0.233 0.078-0.466 0.155-0.706 0.235 0.155 0.039 0.311 0.078 0.471 0.118-0.194 0.078-0.388 0.155-0.588 0.235 0.078 0.078 0.155 0.155 0.235 0.235-0.075 0.012-0.15 0.024-0.228 0.037-0.12 0.040-0.12 0.040-0.243 0.081-0.039 0.116-0.078 0.233-0.118 0.353 0.741-0.056 1.344-0.366 1.838-0.92 0.3-0.384 0.3-0.384 0.398-0.845-0.343 0-0.628 0.048-0.963 0.118zM56 24.824c0.118 0.235 0.118 0.235 0.118 0.235zM51.949 24.918c-0.22 0.020-0.44 0.041-0.66 0.061-0.338 0.032-0.675 0.064-1.013 0.096-3.548 0.337-7.097 0.49-10.659 0.579-0.477 0.012-0.955 0.025-1.432 0.038-0.925 0.025-1.849 0.049-2.774 0.072 0.048 0.064 0.096 0.128 0.146 0.195 0.063 0.084 0.127 0.169 0.192 0.256 0.063 0.084 0.125 0.167 0.19 0.253 0.14 0.187 0.28 0.374 0.42 0.561 0.254 0.295 0.518 0.513 0.832 0.743 0.102 0.077 0.204 0.153 0.31 0.232 1.105 0.67 2.049 0.772 3.33 0.746 0.171-0.002 0.342-0.004 0.513-0.006 5.482-0.065 5.482-0.065 10.774-1.333 0.039-0.078 0.078-0.155 0.118-0.235-0.135 0.006-0.27 0.012-0.409 0.018-3.511 0.153-7.021 0.304-10.532 0.453 0.129-0.010 0.258-0.020 0.391-0.030 1.219-0.095 2.437-0.19 3.656-0.286 0.626-0.049 1.253-0.098 1.879-0.147 0.605-0.047 1.21-0.094 1.815-0.142 0.23-0.018 0.461-0.036 0.691-0.054 0.324-0.025 0.647-0.051 0.971-0.076 0.095-0.007 0.189-0.015 0.286-0.022 0.261-0.021 0.521-0.043 0.782-0.067 0.090-0.008 0.179-0.015 0.271-0.023 0.224-0.023 0.447-0.057 0.67-0.094 0.039-0.078 0.078-0.155 0.118-0.235-2.482 0.072-4.962 0.172-7.442 0.289-0.437 0.021-0.874 0.041-1.312 0.062-0.847 0.040-1.694 0.080-2.54 0.12 0.147-0.011 0.294-0.023 0.446-0.034 1.383-0.106 2.767-0.213 4.15-0.322 0.711-0.056 1.422-0.111 2.134-0.165 0.686-0.052 1.372-0.106 2.057-0.16 0.262-0.021 0.525-0.041 0.787-0.061 0.366-0.028 0.732-0.057 1.098-0.086 0.164-0.012 0.164-0.012 0.332-0.024 0.255-0.021 0.508-0.054 0.761-0.089 0.039-0.078 0.078-0.155 0.118-0.235-2.696 0.063-5.389 0.199-8.082 0.339-0.232 0.012-0.464 0.024-0.696 0.036-0.288 0.015-0.576 0.030-0.864 0.045-0.194 0.010-0.194 0.010-0.393 0.020-0.113 0.006-0.226 0.012-0.342 0.018-0.345 0.013-0.689 0.015-1.034 0.013 0.147-0.011 0.294-0.021 0.445-0.033 1.382-0.101 2.763-0.205 4.145-0.311 0.71-0.054 1.42-0.108 2.131-0.16 0.685-0.050 1.37-0.102 2.055-0.156 0.262-0.020 0.524-0.039 0.786-0.058 0.366-0.026 0.731-0.055 1.097-0.084 0.109-0.007 0.218-0.014 0.331-0.022 0.099-0.009 0.199-0.017 0.301-0.026 0.087-0.006 0.173-0.013 0.262-0.020 0.238-0.056 0.238-0.056 0.36-0.314 0.029-0.076 0.058-0.151 0.088-0.23-0.691-0.010-1.363 0.028-2.051 0.095zM55.882 25.059c0.118 0.235 0.118 0.235 0.118 0.235zM55.765 25.294c0.118 0.235 0.118 0.235 0.118 0.235zM23.882 25.647c0.034 0.562 0.122 0.949 0.513 1.371 1.652 1.357 4.639 1.103 6.627 0.923 0.169-0.018 0.338-0.038 0.507-0.059 0-0.039 0-0.078 0-0.118-1.359-0.078-2.718-0.155-4.118-0.235 1.242-0.039 2.485-0.078 3.765-0.118 0-0.039 0-0.078 0-0.118-0.603-0.116-1.197-0.154-1.809-0.184-0.335-0.017-0.67-0.034-1.015-0.051 0.854-0.039 1.708-0.078 2.588-0.118 0-0.078 0-0.155 0-0.235-1.32-0.078-2.64-0.155-4-0.235 1.242-0.039 2.485-0.078 3.765-0.118 0-0.039 0-0.078 0-0.118-1.398-0.078-2.795-0.155-4.235-0.235 1.359-0.039 2.718-0.078 4.118-0.118 0-0.078 0-0.155 0-0.235-3.38-0.373-3.38-0.373-6.706 0zM55.647 25.529c0.118 0.235 0.118 0.235 0.118 0.235zM55.529 25.765c0.118 0.235 0.118 0.235 0.118 0.235zM55.412 26c0.118 0.235 0.118 0.235 0.118 0.235zM55.294 26.235c0.118 0.235 0.118 0.235 0.118 0.235zM55.059 26.588c0.118 0.235 0.118 0.235 0.118 0.235zM54.941 26.824c0.118 0.235 0.118 0.235 0.118 0.235zM35.529 27.059c0.078 0.155 0.155 0.311 0.235 0.471 0-0.116 0-0.233 0-0.353-0.078-0.039-0.155-0.078-0.235-0.118zM54.706 27.176c0.118 0.235 0.118 0.235 0.118 0.235zM54.471 27.529c0.118 0.235 0.118 0.235 0.118 0.235zM36.353 28c0.116 0.175 0.116 0.175 0.235 0.353 0.078-0.039 0.155-0.078 0.235-0.118-0.155-0.078-0.311-0.155-0.471-0.235zM54 28.118c0.118 0.235 0.118 0.235 0.118 0.235zM37.059 28.588c0.039 0.078 0.078 0.155 0.118 0.235 0.078-0.039 0.155-0.078 0.235-0.118-0.116-0.039-0.233-0.078-0.353-0.118zM52.824 28.824c0 0.039 0 0.078 0 0.118 0.194 0 0.388 0 0.588 0 0-0.039 0-0.078 0-0.118-0.194 0-0.388 0-0.588 0zM52.353 28.941c0.471 0.118 0.471 0.118 0.471 0.118zM51.765 29.059c0 0.039 0 0.078 0 0.118 0.194 0 0.388 0 0.588 0 0-0.039 0-0.078 0-0.118-0.194 0-0.388 0-0.588 0zM50.416 29.271c-0.122 0.020-0.244 0.040-0.369 0.061-0.13 0.021-0.259 0.043-0.392 0.065-2.118 0.337-4.223 0.499-6.366 0.563-0.748 0.023-1.486 0.072-2.23 0.158 0 0.039 0 0.078 0 0.118 3.577 0.077 7.203-0.196 10.706-0.941 0-0.039 0-0.078 0-0.118-0.463-0.009-0.893 0.017-1.349 0.095z"></path>
</symbol>
<symbol id="icon-Logo" viewBox="0 0 208 32">
<path fill="#3470ff" style="fill: var(--color1, #3470ff)" d="M202.142 15.291c-1.366 0-2.614 0.079-3.744 0.236s-2.351 0.473-3.665 0.946v15.054h-6.857v-22.384h5.084l1.025 2.64c1.366-1.103 2.706-1.892 4.020-2.365s2.694-0.709 4.138-0.709v6.581z"></path>
<path fill="#3470ff" style="fill: var(--color1, #3470ff)" d="M184.597 31.291c-0.841 0.184-1.59 0.315-2.246 0.394-0.63 0.079-1.379 0.118-2.246 0.118-2.522 0-4.177-0.814-4.966-2.443-1.103 0.814-2.207 1.432-3.31 1.852s-2.312 0.631-3.626 0.631c-1.182 0-2.246-0.25-3.192-0.749s-1.682-1.169-2.207-2.010c-0.525-0.841-0.788-1.76-0.788-2.759 0-1.682 0.42-3.008 1.261-3.98 0.867-0.998 2.023-1.787 3.468-2.365 1.445-0.604 3.639-1.327 6.581-2.167l1.182-0.355v-0.158c0-2.417-1.103-3.626-3.31-3.626-1.077 0-2.233 0.236-3.468 0.709s-2.654 1.235-4.256 2.286l-1.301-4.729c1.787-1.025 3.599-1.826 5.438-2.404 1.865-0.578 3.836-0.867 5.911-0.867 2.522 0 4.453 0.683 5.793 2.049 1.366 1.366 2.049 3.704 2.049 7.015v7.488c0 0.578 0.118 0.998 0.355 1.261 0.237 0.236 0.618 0.355 1.143 0.355 0.499 0 0.998-0.066 1.498-0.197l0.236 4.65zM168.873 25.419c0 0.525 0.131 0.906 0.394 1.143 0.289 0.236 0.736 0.355 1.34 0.355 1.103 0 2.404-0.473 3.901-1.419v-4.177l-0.591 0.197c-1.971 0.709-3.31 1.34-4.020 1.892-0.683 0.526-1.025 1.195-1.025 2.010z"></path>
<path fill="#3470ff" style="fill: var(--color1, #3470ff)" d="M150.364 32c-3.258 0-6.016-0.631-8.276-1.892-2.26-1.287-3.954-2.982-5.084-5.084-1.103-2.128-1.655-4.44-1.655-6.936 0-2.47 0.578-4.755 1.734-6.857 1.182-2.102 2.929-3.783 5.241-5.044s5.097-1.892 8.355-1.892c3.048 0 5.728 0.591 8.040 1.773l-1.419 4.966c-0.972-0.499-1.984-0.893-3.034-1.182-1.051-0.315-2.246-0.473-3.586-0.473-1.708 0-3.192 0.394-4.453 1.182-1.235 0.762-2.181 1.813-2.837 3.153-0.631 1.314-0.946 2.785-0.946 4.414 0 2.575 0.683 4.69 2.049 6.345 1.366 1.629 3.324 2.443 5.872 2.443 2.181 0 4.532-0.539 7.054-1.616l1.34 4.847c-1.077 0.552-2.365 0.998-3.862 1.34s-3.008 0.512-4.532 0.512z"></path>
<path fill="#101828" style="fill: var(--color2, #101828)" d="M123.567 0h6.857v31.527h-6.857v-31.527z"></path>
<path fill="#101828" style="fill: var(--color2, #101828)" d="M120.288 31.291c-0.841 0.184-1.589 0.315-2.246 0.394-0.631 0.079-1.379 0.118-2.246 0.118-2.522 0-4.177-0.814-4.965-2.443-1.104 0.814-2.207 1.432-3.31 1.852s-2.312 0.631-3.626 0.631c-1.182 0-2.246-0.25-3.192-0.749s-1.681-1.169-2.207-2.010c-0.526-0.841-0.788-1.76-0.788-2.759 0-1.682 0.42-3.008 1.261-3.98 0.867-0.998 2.023-1.787 3.468-2.365 1.445-0.604 3.639-1.327 6.581-2.167l1.182-0.355v-0.158c0-2.417-1.103-3.626-3.31-3.626-1.077 0-2.233 0.236-3.468 0.709s-2.653 1.235-4.256 2.286l-1.3-4.729c1.787-1.025 3.599-1.826 5.438-2.404 1.865-0.578 3.836-0.867 5.911-0.867 2.522 0 4.453 0.683 5.793 2.049 1.366 1.366 2.049 3.704 2.049 7.015v7.488c0 0.578 0.118 0.998 0.355 1.261 0.236 0.236 0.617 0.355 1.143 0.355 0.499 0 0.998-0.066 1.498-0.197l0.236 4.65zM104.564 25.419c0 0.525 0.131 0.906 0.394 1.143 0.289 0.236 0.736 0.355 1.34 0.355 1.104 0 2.404-0.473 3.902-1.419v-4.177l-0.591 0.197c-1.97 0.709-3.31 1.34-4.020 1.892-0.683 0.526-1.025 1.195-1.025 2.010z"></path>
<path fill="#101828" style="fill: var(--color2, #101828)" d="M95.248 30.069c-0.788 0.552-1.734 0.985-2.837 1.301-1.077 0.289-2.128 0.433-3.153 0.433-2.785 0-4.86-0.604-6.227-1.813-1.366-1.235-2.049-2.995-2.049-5.281v-10.719h-3.35v-2.877l4.217-1.695 1.892-6.030h4.098v5.754h6.306v4.847h-6.306v9.064c0 1.393 0.223 2.378 0.67 2.956s1.117 0.867 2.010 0.867c1.156 0 2.378-0.342 3.665-1.025l1.064 4.217z"></path>
<path fill="#101828" style="fill: var(--color2, #101828)" d="M66.38 8.67c2.916 0 4.926 0.775 6.029 2.325 1.13 1.55 1.695 3.783 1.695 6.7v13.833h-6.857v-12.966c0-1.839-0.223-3.113-0.67-3.823-0.42-0.709-1.248-1.064-2.483-1.064-1.34 0-2.706 0.447-4.099 1.34v16.512h-6.857v-22.384h5.084l0.709 1.852c2.575-1.55 5.058-2.325 7.448-2.325z"></path>
<path fill="#101828" style="fill: var(--color2, #101828)" d="M34.057 21.596c0.131 1.865 0.591 3.245 1.379 4.138s1.997 1.34 3.626 1.34c1.209 0 2.325-0.21 3.35-0.63 1.051-0.447 2.246-1.103 3.586-1.97l1.852 4.335c-1.392 1.13-2.772 1.944-4.138 2.443s-2.929 0.749-4.69 0.749c-2.601 0-4.782-0.499-6.542-1.498-1.76-1.025-3.074-2.404-3.941-4.138-0.841-1.76-1.261-3.757-1.261-5.99 0-3.547 0.998-6.384 2.995-8.512s4.913-3.192 8.749-3.192c3.048 0 5.36 0.828 6.936 2.483 1.603 1.629 2.417 3.954 2.443 6.975 0 1.182-0.171 2.338-0.512 3.468h-13.833zM41.741 17.143c0.026-0.158 0.039-0.368 0.039-0.631-0.026-1.077-0.315-1.892-0.867-2.443-0.552-0.578-1.314-0.867-2.286-0.867-2.312 0-3.757 1.314-4.335 3.941h7.448z"></path>
<path fill="#101828" style="fill: var(--color2, #101828)" d="M10.877 21.675h-3.783v9.852h-7.094v-26.798h10.719c3.836 0 6.634 0.657 8.394 1.97 1.76 1.287 2.64 3.323 2.64 6.108 0 3.626-1.327 6.056-3.98 7.291l7.527 11.429h-8.197l-6.227-9.852zM7.094 16.749h3.626c1.392 0 2.391-0.289 2.995-0.867 0.631-0.578 0.946-1.471 0.946-2.68 0-1.261-0.302-2.168-0.906-2.719s-1.616-0.828-3.034-0.828h-3.626v7.094z"></path>
</symbol>
</defs>
</svg>
